<svg width="248" height="279" viewBox="0 0 248 279" fill="none" xmlns="http://www.w3.org/2000/svg">
<path d="M29.6172 83.1724H42.5478C55.8232 83.1724 64.9609 89.3854 64.9609 104.918C64.9609 120.451 55.8232 126.836 43.065 126.836H29.6172V83.1724ZM41.6858 117.689C48.0649 117.689 52.8923 115.1 52.8923 104.918C52.8923 94.7355 47.8924 92.4919 41.6858 92.4919H41.1685V117.689H41.6858Z" fill="#FFFD67"/>
<path d="M69.9609 110.095C69.9609 98.8773 78.0641 92.4917 86.6845 92.4917C95.3049 92.4917 103.408 98.8773 103.408 110.095C103.408 121.313 95.3049 127.699 86.6845 127.699C78.0641 127.699 69.9609 121.313 69.9609 110.095ZM91.512 110.095C91.512 104.918 90.1327 101.811 86.6845 101.811C83.2364 101.811 81.8571 105.09 81.8571 110.095C81.8571 115.1 83.2364 118.379 86.6845 118.379C90.1327 118.379 91.512 115.273 91.512 110.095Z" fill="#FFFD67"/>
<path d="M108.752 115.1V80.0654H120.303V115.445C120.303 117.689 121.338 118.379 122.2 118.379C122.545 118.379 122.889 118.379 123.407 118.207L124.786 126.663C123.579 127.181 121.683 127.526 119.096 127.526C111.338 127.699 108.752 122.521 108.752 115.1Z" fill="#FFFD67"/>
<path d="M128.752 115.1V80.0654H140.303V115.445C140.303 117.689 141.338 118.379 142.2 118.379C142.545 118.379 142.889 118.379 143.407 118.207L144.786 126.663C143.579 127.181 141.683 127.526 139.096 127.526C131.338 127.699 128.752 122.521 128.752 115.1Z" fill="#FFFD67"/>
<path d="M93.0033 50.3551L93.9462 45.6666H107.619L106.859 50.3551H105.524V47.0024H101.752L100.233 55.096C99.8134 57.3486 99.4206 59.6012 99.0539 61.8538L101.699 62.1681L101.49 63.2158H94.0248L94.2344 62.1681L96.7751 61.88L98.2943 53.7864C98.5038 52.6513 98.7046 51.5163 98.8967 50.3813C99.1062 49.2463 99.2983 48.12 99.4729 47.0024H95.544L94.3391 50.3551H93.0033ZM109.383 63.4254L109.121 63.2158L111.661 50.7218C111.819 49.9535 111.967 49.1851 112.107 48.4168C112.264 47.631 112.404 46.8452 112.526 46.0595L110.037 45.9023L110.142 45.1427L114.674 43.8331L114.936 44.0426L113.05 53.3673C113.888 52.5466 114.796 51.8568 115.774 51.298C116.769 50.7393 117.66 50.4599 118.445 50.4599C119.58 50.4599 120.148 51.0623 120.148 52.2672C120.148 52.6863 120.096 53.1141 119.991 53.5506C119.903 53.9697 119.807 54.3975 119.703 54.8341L118.524 59.6798C118.437 60.0465 118.358 60.3608 118.288 60.6227C118.218 60.8672 118.183 61.0593 118.183 61.199C118.183 61.5657 118.358 61.749 118.707 61.749C119.022 61.749 119.406 61.5831 119.86 61.2514C120.331 60.9196 120.803 60.4568 121.274 59.8631L121.903 60.3608C121.571 60.8672 121.161 61.3736 120.672 61.88C120.2 62.3689 119.685 62.7705 119.126 63.0849C118.568 63.3992 117.991 63.5563 117.398 63.5563C116.979 63.5563 116.647 63.4516 116.402 63.242C116.175 63.0325 116.062 62.7618 116.062 62.43C116.062 62.1332 116.097 61.8451 116.167 61.5657C116.254 61.2688 116.359 60.8497 116.481 60.3084L117.607 55.6985C117.712 55.2444 117.808 54.8166 117.895 54.415C117.983 54.0134 118.026 53.6816 118.026 53.4197C118.026 52.9657 117.948 52.6513 117.791 52.4767C117.633 52.3021 117.406 52.2148 117.11 52.2148C116.638 52.2148 116.044 52.4069 115.328 52.791C114.613 53.1577 113.774 53.7253 112.814 54.4936L112.133 57.7153C111.958 58.6233 111.784 59.5401 111.609 60.4656C111.434 61.3736 111.277 62.2903 111.138 63.2158L109.383 63.4254ZM130.99 51.5862C130.589 51.5862 130.143 51.7433 129.655 52.0576C129.183 52.3719 128.72 52.8085 128.266 53.3673C127.812 53.9261 127.428 54.5722 127.114 55.3056C126.817 56.0215 126.634 56.7898 126.564 57.6105C128.013 57.1914 129.166 56.7287 130.021 56.2223C130.894 55.6985 131.514 55.1746 131.881 54.6507C132.265 54.1094 132.457 53.603 132.457 53.1315C132.457 52.6426 132.318 52.2672 132.038 52.0052C131.776 51.7259 131.427 51.5862 130.99 51.5862ZM128.685 63.5563C127.533 63.5563 126.581 63.1634 125.83 62.3776C125.097 61.5919 124.73 60.3608 124.73 58.6844C124.73 57.6367 124.914 56.6239 125.28 55.6461C125.647 54.6507 126.145 53.7689 126.773 53.0006C127.402 52.2148 128.127 51.5949 128.947 51.1409C129.786 50.6869 130.659 50.4599 131.567 50.4599C132.422 50.4599 133.068 50.6694 133.505 51.0885C133.959 51.5076 134.186 52.1013 134.186 52.8696C134.186 53.4284 133.968 54.0483 133.531 54.7293C133.095 55.3929 132.318 56.0652 131.2 56.7462C130.1 57.4272 128.554 58.0558 126.564 58.6321C126.616 59.7496 126.878 60.5529 127.35 61.0418C127.821 61.5133 128.458 61.749 129.262 61.749C130.082 61.749 130.79 61.5395 131.383 61.1204C131.977 60.7013 132.448 60.2735 132.798 59.8369L133.4 60.3084C132.859 61.199 132.178 61.9673 131.357 62.6134C130.536 63.242 129.646 63.5563 128.685 63.5563Z" fill="#FFFD67"/>
<path d="M147.372 117.344C147.372 110.268 152.717 106.471 165.647 105.09C165.303 102.674 163.923 101.639 160.992 101.639C158.579 101.639 155.992 102.502 152.544 104.4L148.579 96.8063C153.234 94.045 158.061 92.4917 163.234 92.4917C172.026 92.4917 177.199 97.1515 177.199 108.197V126.836H167.716L166.854 123.557H166.509C163.751 125.973 160.82 127.526 157.199 127.526C151.165 127.699 147.372 122.867 147.372 117.344ZM165.647 116.481V111.821C160.13 112.684 158.406 114.41 158.406 116.308C158.406 117.862 159.441 118.725 161.51 118.725C163.406 118.897 164.44 117.862 165.647 116.481Z" fill="#FFFD67"/>
<path d="M184.784 93.182H194.267L195.129 99.0499H195.473C197.887 94.3901 201.68 92.4917 204.956 92.4917C207.025 92.4917 208.232 92.8369 209.094 93.182L207.197 103.192C205.99 102.847 204.956 102.674 203.404 102.674C200.991 102.674 198.06 104.227 196.336 108.369V127.009H184.784V93.182Z" fill="#FFFD67"/>
<path d="M28.7549 145.614H40.3062V161.837H53.4092V145.614H64.9606V189.278H53.4092V172.02H40.3062V189.451H28.7549V145.614Z" fill="#FFFD67"/>
<path d="M71.8564 172.538C71.8564 161.32 79.9596 154.934 88.58 154.934C97.2004 154.934 105.304 161.32 105.304 172.538C105.304 183.756 97.2004 190.141 88.58 190.141C79.9596 190.141 71.8564 183.756 71.8564 172.538ZM93.4075 172.538C93.4075 167.36 92.0282 164.254 88.58 164.254C85.1319 164.254 83.7526 167.533 83.7526 172.538C83.7526 177.543 85.1319 180.822 88.58 180.822C92.0282 180.822 93.4075 177.715 93.4075 172.538Z" fill="#FFFD67"/>
<path d="M110.648 177.542V142.508H122.2V177.888C122.2 180.131 123.234 180.822 124.096 180.822C124.441 180.822 124.786 180.822 125.303 180.649L126.682 189.106C125.476 189.623 123.579 189.968 120.993 189.968C113.235 190.141 110.648 185.136 110.648 177.542Z" fill="#FFFD67"/>
<path d="M130.648 177.542V142.508H142.2V177.888C142.2 180.131 143.234 180.822 144.096 180.822C144.441 180.822 144.786 180.822 145.303 180.649L146.682 189.106C145.476 189.623 143.579 189.968 140.993 189.968C133.235 190.141 130.648 185.136 130.648 177.542Z" fill="#FFFD67"/>
<path d="M148.923 172.538C148.923 161.665 156.854 154.934 165.129 154.934C175.129 154.934 179.784 162.183 179.784 171.157C179.784 173.228 179.439 175.126 179.267 175.989H160.129C161.164 179.959 164.095 181.339 167.888 181.339C170.129 181.339 172.37 180.649 174.784 179.268L178.577 186.172C174.956 188.761 170.129 190.141 166.336 190.141C156.509 190.141 148.923 183.756 148.923 172.538ZM169.957 168.568C169.957 165.979 168.922 163.736 165.302 163.736C162.715 163.736 160.647 165.289 159.957 168.568H169.957Z" fill="#FFFD67"/>
<path d="M185.991 155.797H195.474L196.336 161.665H196.681C199.094 157.005 202.887 155.106 206.163 155.106C208.232 155.106 209.439 155.452 210.301 155.797L208.404 165.807C207.197 165.462 206.163 165.289 204.611 165.289C202.198 165.289 199.267 166.842 197.543 170.984V189.623H185.991V155.797Z" fill="#FFFD67"/>
<path d="M11.8425 9.80378C10.617 8.41489 8.98304 8.00639 7.26734 8.41489C6.20525 8.65998 5.22485 9.23188 4.08105 9.72208C7.43074 13.7254 10.6987 17.5653 13.9667 21.4868C15.9275 23.7744 18.2151 24.2646 21.238 22.794C19.604 20.1796 18.2151 17.7287 16.6628 15.4411C15.1922 13.4803 13.4765 11.6829 11.8425 9.80378Z" fill="#7F5BDC"/>
<path d="M0.147771 106.147C0.953574 106.959 1.58966 107.543 2.09881 108.23C2.84114 109.094 3.62191 109.246 4.73184 108.921C5.90228 108.6 7.12733 108.391 8.34942 108.237C11.8976 107.715 15.5034 107.25 19.0545 106.672C20.0951 106.509 21.081 106.232 22.2515 105.911C20.7846 103.854 19.0076 103.044 16.6239 103.355C11.9141 104.035 7.20436 104.714 2.49458 105.394C1.75955 105.519 1.07321 105.867 0.147771 106.147Z" fill="#7F5BDC"/>
<path d="M208.155 23.4514C209.298 23.3975 210.157 23.3163 211.008 23.3983C212.147 23.426 212.783 22.9482 213.285 21.9067C213.831 20.8224 214.497 19.7731 215.201 18.7628C217.19 15.7783 219.261 12.79 221.211 9.76661C221.787 8.88448 222.242 7.9673 222.787 6.88301C220.278 6.59417 218.486 7.37078 217.12 9.34875C214.469 13.3008 211.819 17.2529 209.168 21.205C208.769 21.8346 208.567 22.5769 208.155 23.4514Z" fill="#7F5BDC"/>
<path d="M109.732 23.7153C109.814 24.5323 110.386 25.9212 110.876 26.0029C112.918 26.4931 114.961 27.6369 116.758 26.3297C117.003 19.7938 118.637 13.748 119.536 7.2937C118.964 7.0486 118.474 6.8852 117.984 6.7218C117.575 6.6401 117.167 6.4767 116.758 6.5584C113.327 7.212 112.02 6.3133 111.284 10.9702C110.794 13.8297 110.222 16.6892 109.732 19.5487C109.65 21.0192 109.569 22.4081 109.732 23.7153Z" fill="#7F5BDC"/>
<path d="M219.115 182.451C223.69 186.128 228.347 188.987 233.658 190.376C235.455 190.866 237.661 190.376 239.377 188.66C238.641 188.17 238.233 187.762 237.661 187.517C234.23 185.556 230.798 183.677 227.449 181.634C224.834 180.082 222.383 180.082 219.115 182.451Z" fill="#7F5BDC"/>
<path d="M222.062 35.8953C219.419 38.1632 216.909 40.5698 214.372 42.8939C213.777 43.4617 213.344 44.2509 212.523 45.4461C218.996 45.4754 222.099 40.9387 226.043 37.8655C227.211 36.9214 228.456 35.9509 228.278 33.345C227.724 33.2555 226.907 33.1627 226.141 32.9609C224.622 33.3797 223.201 34.8686 222.062 35.8953Z" fill="#7F5BDC"/>
<path d="M19.2778 206.006C16.9902 210.5 14.7843 215.075 12.415 219.895C17.9706 221.284 18.8693 220.794 20.8301 216.219C22.3824 212.461 24.1798 208.866 25.8138 205.189C26.304 204.127 26.9576 203.065 27.5295 201.921C23.1177 201.431 21.2386 202.33 19.2778 206.006Z" fill="#7F5BDC"/>
<path d="M153.183 206.209C152.775 206.291 152.203 206.863 152.203 207.271C152.121 208.823 152.121 210.376 152.121 211.928C152.121 212.255 152.203 212.582 152.203 212.827C152.938 216.421 153.755 219.935 155.879 222.957C156.533 223.856 157.186 224.836 158.494 224.918C160.618 225.082 162.579 224.836 164.376 223.202C160.863 217.402 159.392 211.029 158.902 204.33C156.533 203.84 155.062 205.719 153.183 206.209ZM153.101 208.333C153.101 208.415 153.101 208.497 153.101 208.497C153.101 208.497 153.101 208.415 153.101 208.333Z" fill="#7F5BDC"/>
<path d="M62.4187 4.00819C59.5592 1.3121 52.1246 6.86768 47.9579 6.62258C47.386 6.54088 46.8141 6.54088 46.3239 6.37748C46.3239 6.29578 46.4056 6.13238 46.4873 6.05068C46.4873 5.96898 46.6507 5.64218 46.6507 5.72388C45.9154 5.23368 45.2618 5.56048 44.8533 6.21408C44.8533 6.21408 44.8533 6.29578 44.7716 6.29578C44.7716 6.29578 44.7716 6.37748 44.6899 6.37748C44.118 7.60297 44.2814 9.07357 44.3631 10.4625C44.7716 15.8546 45.1801 21.2468 45.2618 26.639C45.6703 29.6619 44.4448 33.2567 45.752 36.0345C45.752 36.1162 45.752 36.1979 45.752 36.3613C45.8337 36.443 45.9154 36.5247 45.9971 36.6064C46.3239 36.8515 46.6507 37.0149 47.0592 37.0966C48.6932 37.4234 50.3272 36.7698 51.8795 36.5247C53.3501 36.1979 54.739 35.8711 56.2096 35.5443C56.1279 35.5443 56.1279 35.5443 56.0462 35.5443C56.373 35.5443 56.6998 35.4626 57.0266 35.3809C56.9449 35.7894 56.9449 36.1162 57.0266 36.2796C56.4547 39.9561 55.4743 43.6325 54.3305 47.1456C54.0037 49.2698 50.8174 53.9267 54.3305 54.4169C58.0886 53.9267 61.9285 52.8646 65.4416 51.394C65.5233 51.7208 65.5233 52.0476 65.605 52.3744C65.605 52.2927 65.605 52.211 65.5233 52.211C66.7488 57.5215 67.239 64.3843 71.8142 67.8974C72.8763 68.7143 73.0397 69.0412 73.6116 66.8353C74.1018 63.1588 74.0201 60.1359 74.592 57.6849C75.0822 52.6195 75.5724 47.5541 76.4711 42.5704C78.677 31.2959 80.3927 28.6815 68.2194 34.8907C70.6704 21.4919 79.7391 11.6063 59.3958 21.4919C59.4775 20.8383 59.5592 20.1847 59.6409 19.5311C59.6409 19.6128 59.6409 19.6945 59.5592 19.6945C60.3762 15.0376 61.8468 10.4625 62.7455 5.80558C62.9906 5.72388 63.0723 5.47878 62.9906 5.07028L62.4187 4.00819ZM67.4024 50.7404C67.4841 50.7404 67.4841 50.6587 67.5658 50.6587C69.2815 49.4332 71.1606 46.7371 67.6475 46.9822C63.4808 48.4528 59.3958 50.3319 54.9841 50.9855C55.3109 50.3319 58.3337 39.2208 58.7422 34.809C61.52 33.5835 61.1115 31.3776 56.1279 33.0116C54.8207 33.7469 48.6115 34.3188 46.4873 35.3809C47.7128 31.2959 46.6507 26.5573 46.7324 22.3906C46.1605 18.1422 46.569 13.5671 45.8337 9.31867C46.4873 9.64547 47.4677 9.80887 48.8566 9.64547C50.0004 9.80887 57.2717 9.31867 60.9481 7.60297C59.7226 11.7697 58.8239 18.0605 58.252 19.4494C58.252 21.0834 56.6181 24.0246 58.5788 24.9233C62.4187 24.188 65.8501 21.8187 69.7717 21.2468C68.3828 26.4756 66.5854 31.6227 65.5233 37.0149C62.9906 39.2208 66.1769 45.1848 67.4024 39.711C68.1377 39.2208 68.873 38.8123 69.6083 38.4855C70.1802 38.2404 70.7521 37.9136 71.324 37.6685C72.6312 37.0966 74.0201 36.5247 75.409 35.9528C75.1639 37.1783 74.9188 38.3221 74.6737 39.5476V39.4659C74.6737 39.6293 74.592 39.7927 74.592 39.8744C74.592 39.7927 74.592 39.711 74.6737 39.711C74.0201 44.041 70.0168 58.8287 72.2227 64.5477" fill="#7F5BDC"/>
<path d="M115.981 230.025C117.539 228.961 119.483 228.111 119.776 225.76C120.306 221.633 121.002 217.58 121.417 213.442C121.555 212.062 121.653 210.504 120.314 209.383C116.215 210.308 115.123 211.94 115.179 216.01C115.282 219.62 114.862 223.236 114.671 226.874C114.654 227.627 114.407 228.357 114.453 229.059C114.59 230.001 115.297 230.479 115.981 230.025Z" fill="#7F5BDC"/>
<path d="M132.698 20.4296C134.428 19.6783 136.497 19.2085 137.227 16.9546C138.523 13.0005 139.969 9.15128 141.155 5.16432C141.55 3.83534 141.939 2.32376 140.835 0.970777C136.635 1.10831 135.255 2.50611 134.546 6.51404C133.968 10.079 132.875 13.5511 132.004 17.0891C131.845 17.8254 131.465 18.4959 131.378 19.1933C131.336 20.1452 131.941 20.7468 132.698 20.4296Z" fill="#7F5BDC"/>
<path d="M238.911 89.2686C239.085 89.0551 239.254 88.6924 239.126 88.3374C238.236 87.4051 232.317 87.1411 230.74 87.3613C232.354 82.8108 237.504 81.0943 239.851 77.1816C241.74 75.1917 233.906 74.7686 232.672 74.4125C234.042 71.9584 235.927 69.8193 237.876 67.8577C237.812 67.6802 237.78 67.5915 237.715 67.414C237.808 67.531 237.812 67.6802 237.876 67.8577C237.808 67.531 237.623 67.297 237.438 67.0629C237.47 67.1517 237.562 67.2687 237.595 67.3574C237.562 67.2687 237.47 67.1517 237.438 67.0629C235.21 65.21 232.041 65.0536 229.36 64.1679C225.788 68.0229 222.796 72.3704 220.32 77.033C219.423 79.2658 225.648 78.7156 227.007 79.2774C224.201 82.7542 221.701 86.5216 219.838 90.6606C219.612 91.1442 219.386 91.6278 219.16 92.1115C220.986 92.3028 222.776 92.2562 224.606 92.5967C221.401 100.234 219.401 108.288 217.402 116.342C223.87 106.768 230.488 97.1911 238.911 89.2686Z" fill="#7F5BDC"/>
<path fill-rule="evenodd" clip-rule="evenodd" d="M83.8008 210.056L54.4197 204.919L40.2207 272.939L80.3355 276.326L83.8008 210.056ZM78.6107 214.244L77.6481 233.561C75.1017 230.695 71.2065 228.483 66.6737 227.863C62.4157 227.281 58.2446 228.11 55.1781 230.069L59.5934 211.083L78.6107 214.244ZM77.2396 240.642L77.1011 243.701L75.5901 243.494C75.2837 244.712 74.8588 245.773 74.0029 246.915L69.3329 246.277C70.8942 245.091 71.7313 244.086 71.9003 242.85C71.9755 242.301 71.9132 241.732 71.5575 241.264C71.2018 240.795 70.69 240.446 70.1405 240.371C69.5911 240.295 69.1603 240.376 68.8292 240.751C68.3796 240.969 67.8548 241.737 67.1551 242.761C66.4554 243.784 65.9494 244.415 65.4435 245.045C64.9563 245.538 64.1944 245.994 63.3139 246.293C62.4334 246.593 61.5905 246.617 60.629 246.486C59.1181 246.279 57.8009 245.679 56.6962 244.549C55.4729 243.262 54.8366 241.776 54.5313 239.915L52.8831 239.69L53.571 236.705L54.9445 236.893C55.1136 235.657 55.7135 234.34 56.763 232.804L61.5705 233.462C59.8529 234.766 58.8222 236.164 58.6344 237.538C58.5217 238.362 58.7025 239.086 59.0582 239.555C59.5325 240.179 60.1817 240.548 60.8685 240.642C61.5552 240.736 62.1422 240.536 62.6106 240.18C63.0791 239.825 63.6038 239.057 64.2847 238.171C65.1593 236.891 65.9964 235.886 67.0518 235.331C68.1072 234.775 69.2624 234.514 70.7733 234.72C72.1468 234.908 73.3267 235.489 74.1755 236.445C75.0243 237.4 75.6794 238.749 76.0222 240.335L77.2584 240.504L77.2396 240.642ZM76.824 249.82L75.7616 268.844L46.6165 267.097L51.3569 246.757C53.8094 250.311 58.0791 252.853 63.2986 253.567C68.5181 254.281 73.4888 252.722 76.824 249.82Z" fill="#7F5BDC"/>
<path fill-rule="evenodd" clip-rule="evenodd" d="M178.814 57.5131L180.745 58.0305C180.745 58.0305 183.423 58.8515 184.411 56.3221L199.624 15.382C199.624 15.382 200.961 12.3251 196.995 11.6765C196.39 11.6178 195.302 11.4298 194.021 11.19L178.814 57.5131ZM167.51 7.39791C167.51 7.39791 164.587 6.71832 163.726 10.3167C162.341 16.2582 155.53 47.859 155.53 47.859C155.53 47.859 154.464 50.678 158.23 51.6869C160.257 52.2302 166.893 54.1119 172.371 55.6832L186.038 10.0858C177.572 8.85228 167.51 7.39791 167.51 7.39791ZM181.127 13.7373L174.061 37.4049L171.357 36.6805L178.004 13.418L181.127 13.7373ZM176.33 13.4869L171.456 29.3595L169.042 28.7127L173.523 13.1487L176.33 13.4869Z" fill="#7F5BDC"/>
<path fill-rule="evenodd" clip-rule="evenodd" d="M194.754 217.356L194.923 220.562L201.642 221.957L202.522 217.717L194.754 217.356ZM195.15 222.278L195.45 227.263L200.41 228.293L201.39 223.574L195.15 222.278ZM195.581 229.043L195.884 233.612L199.164 234.293L200.061 229.973L195.581 229.043ZM200.844 234.641L205.323 235.572L206.78 231.368L201.741 230.322L200.844 234.641ZM207.369 229.738L208.909 225.135L203.07 223.922L202.09 228.642L207.369 229.738ZM209.498 223.505L211.268 218.198L204.332 217.843L203.402 222.323L209.481 223.585L209.498 223.505ZM207.003 235.921L210.043 236.552L212.46 232.548L208.38 231.701L207.003 235.921ZM213.449 231.001L216.109 226.63L210.589 225.484L209.049 230.087L213.449 231.001ZM217.097 225.083L221.022 218.639L213.094 218.244L211.178 223.854L217.097 225.083ZM190.092 243.423C189.759 245.023 190.79 246.489 192.31 246.804C193.83 247.12 195.376 246.106 195.691 244.586C196.007 243.066 194.993 241.52 193.473 241.205C191.89 240.793 190.424 241.823 190.092 243.423ZM202.251 245.948C201.918 247.548 202.949 249.014 204.469 249.329C205.989 249.645 207.535 248.631 207.85 247.111C208.166 245.591 207.152 244.045 205.632 243.73C204.129 243.334 202.583 244.348 202.251 245.948ZM191.694 210.796L185.054 209.417L183.143 212.191L189.063 213.42L191.171 238.224L209.97 242.127L210.838 239.554L193 235.85L191.694 210.796Z" fill="#7F5BDC"/>
</svg>
